<svg xmlns="http://www.w3.org/2000/svg" viewBox="0 0 512 512" width="100%" height="100%">
  <defs>
    <linearGradient id="logo-grad" x1="0%" y1="0%" x2="100%" y2="100%">
      <stop offset="0%" stop-color="#4f46e5" />
      <stop offset="100%" stop-color="#06b6d4" />
    </linearGradient>
  </defs>
  <!-- Book Symbol -->
  <path fill="url(#logo-grad)" d="M464 64H320c-35.3 0-64 28.7-64 64v320c0-35.3-28.7-64-64-64H48c-26.5 0-48 21.5-48 48v16c0 8.8 7.2 16 16 16h176c35.3 0 64 28.7 64 64 0-35.3 28.7-64 64-64h176c8.8 0 16-7.2 16-16V112c0-26.5-21.5-48-48-48zM224 336c-17.7 0-32 14.3-32 32v16H48V112h144c26.5 0 48 21.5 48 48v176zm240 48H320v-16c0-17.7-14.3-32-32-32V160c0-26.5 21.5-48 48-48h144v272z"/>
</svg>
